
<svg xmlns="http://www.w3.org/2000/svg" xmlns:xlink="http://www.w3.org/1999/xlink">
    <symbol viewBox="0 0 36 36" id="adaptavist">
        <title>Product apps</title>
        <path d="M26 20.64a1.81 1.81 0 0 0 1.47 2.17h.39a2.76 2.76 0 0 0 .78-.16.15.15 0 0 1 .23.08v1.17a.86.86 0 0 1-.85.85h-1.31a.86.86 0 0 0-.85.85 1.44 1.44 0 0 0 .16.54 1.12 1.12 0 0 1 .16.54 1 1 0 0 1-1 1 1 1 0 0 1-.47-.08 1.21 1.21 0 0 1-.62-1 .74.74 0 0 1 .16-.54 1.12 1.12 0 0 0 .16-.54.86.86 0 0 0-.85-.85h-1.35a.86.86 0 0 1-.85-.85V22.5a.86.86 0 0 0-.85-.85 1.44 1.44 0 0 0-.54.16 1.12 1.12 0 0 1-.54.16 1.11 1.11 0 0 1-.93-.47 1 1 0 0 1-.08-1 1.18 1.18 0 0 1 .93-.54.74.74 0 0 1 .54.16 1.12 1.12 0 0 0 .54.16.86.86 0 0 0 .85-.85V18a.86.86 0 0 1 .85-.85h1.32a.86.86 0 0 0 .85-.85 1.44 1.44 0 0 0-.16-.54 1.12 1.12 0 0 1-.16-.54 1 1 0 0 1 1-1 1 1 0 0 1 .47.08 1 1 0 0 1 .62.93.74.74 0 0 1-.16.54 1.12 1.12 0 0 0-.16.54.86.86 0 0 0 .85.85H28a.86.86 0 0 1 .85.85v1.09c0 .08-.08.16-.23.16h-.08a2.76 2.76 0 0 0-.78-.16A2 2 0 0 0 26 20.64z"
              fill="currentColor"/>
        <path d="M20.27 22.74a2.76 2.76 0 0 1-.78.16 1.86 1.86 0 1 1 0-3.73 2.76 2.76 0 0 1 .78.16.15.15 0 0 0 .23-.08v-1.09a.86.86 0 0 0-.85-.85h-1.32a.86.86 0 0 1-.85-.85 1.44 1.44 0 0 1 .16-.54 1.12 1.12 0 0 0 .16-.54 1 1 0 0 0-.62-.93 1 1 0 0 0-.47-.08 1 1 0 0 0-1 1 .74.74 0 0 0 .16.54 1.12 1.12 0 0 1 .16.54.86.86 0 0 1-.85.85h-1.27a.86.86 0 0 0-.85.85v1.32a.86.86 0 0 1-.85.85 1.44 1.44 0 0 1-.54-.16c-.08-.16-.23-.16-.47-.16a1.08 1.08 0 0 0-.93.54 1.16 1.16 0 0 0 .08 1 1 1 0 0 0 .85.47.74.74 0 0 0 .54-.16 1.12 1.12 0 0 1 .54-.16.86.86 0 0 1 .85.85v1.36a.86.86 0 0 0 .85.85h1.32a.86.86 0 0 1 .85.85 1.44 1.44 0 0 1-.16.54 1.12 1.12 0 0 0-.16.54 1.08 1.08 0 0 0 .54.93 1 1 0 0 0 .47.08 1.16 1.16 0 0 0 1.09-1 .74.74 0 0 0-.16-.54 1.12 1.12 0 0 1-.16-.54.86.86 0 0 1 .85-.85h1.32a.86.86 0 0 0 .85-.85v-1a.28.28 0 0 0-.39-.16c.11-.09.03-.09.03-.01zM28 9h-5.79a.86.86 0 0 0-.85.85v1.32a.86.86 0 0 1-.85.85 1.44 1.44 0 0 1-.54-.16 1.12 1.12 0 0 0-.54-.16 1.08 1.08 0 0 0-.93.54 1 1 0 0 0 .08 1 1 1 0 0 0 .85.47.74.74 0 0 0 .54-.16 1.12 1.12 0 0 1 .54-.16.86.86 0 0 1 .85.85v1.36a.86.86 0 0 0 .85.85h1.16a.17.17 0 0 0 .16-.16v-.08l-.23-.7a1.79 1.79 0 0 1 1.47-1.94h.39A1.89 1.89 0 0 1 27 15.44a1.77 1.77 0 0 1-.23.85c0 .08 0 .16.08.16h1.24a.86.86 0 0 0 .91-.85V9.85A1 1 0 0 0 28 9z"
              fill="currentColor"/>
    </symbol>
    <symbol viewBox="0 0 36 36" id="add-ons">
        <path fill="currentColor"
              d="M26.5 21.8c-.3 1.3.6 2.6 1.9 2.8h.5c.3 0 .7-.1 1-.2.1-.1.3 0 .3.1V26c0 .6-.5 1.1-1.1 1.1h-1.7c-.6 0-1.1.5-1.1 1.1 0 .2.1.5.2.7.1.2.2.4.2.7 0 .7-.6 1.3-1.3 1.3-.2 0-.4 0-.6-.1-.5-.3-.8-.8-.8-1.3 0-.2 0-.5.2-.7.1-.2.2-.4.2-.7 0-.6-.5-1.1-1.1-1.1h-1.7c-.6 0-1.1-.5-1.1-1.1v-1.7c0-.6-.5-1.1-1.1-1.1-.2 0-.5.1-.7.2-.2.1-.4.2-.7.2-.5 0-.9-.2-1.2-.6-.3-.4-.3-.9-.1-1.3.3-.4.7-.7 1.2-.7.2 0 .5 0 .7.2.2.1.4.2.7.2.6 0 1.1-.5 1.1-1.1v-1.8c0-.6.5-1.1 1.1-1.1h1.7c.6 0 1.1-.5 1.1-1.1 0-.2-.1-.5-.2-.7-.1-.2-.2-.4-.2-.7 0-.7.6-1.3 1.3-1.3.2 0 .4 0 .6.1.5.2.8.7.8 1.2 0 .2 0 .5-.2.7-.1.2-.2.4-.2.7 0 .6.5 1.1 1.1 1.1h1.8c.6 0 1.1.5 1.1 1.1v1.4c0 .1-.1.2-.3.2h-.1c-.3-.1-.7-.2-1-.2-1.1.1-2.1.9-2.3 2z"/>
        <path fill="currentColor"
              d="M19.1 24.5c-.3.1-.7.2-1 .2-1.3 0-2.4-1.1-2.4-2.4 0-1.3 1.1-2.4 2.4-2.4.3 0 .7.1 1 .2.1.1.3 0 .3-.1v-1.4c0-.6-.5-1.1-1.1-1.1h-1.7c-.6 0-1.1-.5-1.1-1.1 0-.2.1-.5.2-.7.1-.2.2-.4.2-.7 0-.5-.3-1-.8-1.2-.2-.1-.4-.1-.6-.1-.7 0-1.3.6-1.3 1.3 0 .2 0 .5.2.7.1.2.2.4.2.7 0 .6-.5 1.1-1.1 1.1h-1.6c-.6 0-1.1.5-1.1 1.1v1.7c0 .6-.5 1.1-1.1 1.1-.2 0-.5-.1-.7-.2-.1-.2-.3-.2-.6-.2-.5 0-1 .3-1.2.7-.2.4-.1.9.1 1.3s.7.6 1.1.6c.2 0 .5 0 .7-.2.2-.1.4-.2.7-.2.6 0 1.1.5 1.1 1.1V26c0 .6.5 1.1 1.1 1.1h1.7c.6 0 1.1.5 1.1 1.1 0 .2-.1.5-.2.7-.1.2-.2.4-.2.7 0 .5.3 1 .7 1.2.2.1.4.1.6.1.7 0 1.3-.6 1.4-1.3 0-.2 0-.5-.2-.7-.1-.2-.2-.4-.2-.7 0-.6.5-1.1 1.1-1.1h1.7c.6 0 1.1-.5 1.1-1.1v-1.3c-.1-.2-.3-.3-.5-.2.1-.1 0-.1 0 0zm10-17.7h-7.5c-.6 0-1.1.5-1.1 1.1v1.7c0 .6-.5 1.1-1.1 1.1-.2 0-.5-.1-.7-.2-.2-.1-.4-.2-.7-.2-.5 0-1 .3-1.2.7-.2.4-.2.9.1 1.3.2.4.7.6 1.1.6.2 0 .5 0 .7-.2.2-.1.4-.2.7-.2.6 0 1.1.5 1.1 1.1v1.7c0 .6.5 1.1 1.1 1.1h1.5c.1 0 .2-.1.2-.2v-.1l-.3-.9c-.1-1.2.7-2.3 1.9-2.5h.5c1.3 0 2.4 1.1 2.4 2.4 0 .4-.1.7-.3 1.1 0 .1 0 .2.1.2h1.6c.6 0 1.1-.5 1.1-1.1V7.9c-.1-.6-.6-1.1-1.2-1.1z"/>
    </symbol>
    <symbol viewBox="0 0 36 36" id="agile">
        <title>Agile</title>
        <path d="M27.25 26.57l-1.2-1.2 1.7-1.7h-13.5a6.31 6.31 0 0 1-3.9-1.7 7.15 7.15 0 0 1-.8-10.1 7.33 7.33 0 0 1 10.1-.8 7.17 7.17 0 0 1 1 9.8h-2.5a5.38 5.38 0 1 0-7.5-1.3 5.65 5.65 0 0 0 4.3 2.3h12.9l-1.7-1.8 1.2-1.2 3.8 3.8zM5.65 23.57a1 1 0 0 1-.8-.9c.1-.5.4-.8.8-.8h2.9a6.14 6.14 0 0 0 1.9 1.7z"
              fill="currentColor"/>
    </symbol>
    <symbol viewBox="0 0 36 36" id="agility-beta">
        <defs>
            <linearGradient id="ada" x1="17.83" y1="-29.2" x2="13.44" y2="-33.59"
                            gradientTransform="matrix(1 0 0 -1 0 -18)" gradientUnits="userSpaceOnUse">
                <stop offset=".07" stop-color="currentColor" stop-opacity=".4"/>
                <stop offset="1" stop-color="currentColor"/>
            </linearGradient>
            <linearGradient id="adb" x1="18.28" y1="-42.69" x2="23.09" y2="-37.88"
                            gradientTransform="matrix(1 0 0 -1 0 -18)" gradientUnits="userSpaceOnUse">
                <stop offset=".07" stop-color="currentColor" stop-opacity=".4"/>
                <stop offset=".91" stop-color="currentColor"/>
            </linearGradient>
        </defs>
        <title>Agility Beta</title>
        <path d="M18 28.76a5.36 5.36 0 0 0 0-7.57l-7-7-3.16 3.21a.85.85 0 0 0 0 1.2L18 28.76zM28.16 17.4L18 7.24a5.36 5.36 0 0 0 0 7.55l7 7 3.18-3.18a.85.85 0 0 0-.02-1.21z"
              fill="currentColor"/>
        <path d="M18 14.82a5.36 5.36 0 0 1 0-7.55l-7.24 7.24 3.79 3.79z" fill="url(#ada)"/>
        <path d="M21.47 17.71L18 21.18a5.36 5.36 0 0 1 0 7.57l7.26-7.26z" fill="url(#adb)"/>
    </symbol>
    <symbol viewBox="0 0 36 36" id="alm-works">
        <title>Product apps</title>
        <path d="M26 20.64a1.81 1.81 0 0 0 1.47 2.17h.39a2.76 2.76 0 0 0 .78-.16.15.15 0 0 1 .23.08v1.17a.86.86 0 0 1-.85.85h-1.31a.86.86 0 0 0-.85.85 1.44 1.44 0 0 0 .16.54 1.12 1.12 0 0 1 .16.54 1 1 0 0 1-1 1 1 1 0 0 1-.47-.08 1.21 1.21 0 0 1-.62-1 .74.74 0 0 1 .16-.54 1.12 1.12 0 0 0 .16-.54.86.86 0 0 0-.85-.85h-1.35a.86.86 0 0 1-.85-.85V22.5a.86.86 0 0 0-.85-.85 1.44 1.44 0 0 0-.54.16 1.12 1.12 0 0 1-.54.16 1.11 1.11 0 0 1-.93-.47 1 1 0 0 1-.08-1 1.18 1.18 0 0 1 .93-.54.74.74 0 0 1 .54.16 1.12 1.12 0 0 0 .54.16.86.86 0 0 0 .85-.85V18a.86.86 0 0 1 .85-.85h1.32a.86.86 0 0 0 .85-.85 1.44 1.44 0 0 0-.16-.54 1.12 1.12 0 0 1-.16-.54 1 1 0 0 1 1-1 1 1 0 0 1 .47.08 1 1 0 0 1 .62.93.74.74 0 0 1-.16.54 1.12 1.12 0 0 0-.16.54.86.86 0 0 0 .85.85H28a.86.86 0 0 1 .85.85v1.09c0 .08-.08.16-.23.16h-.08a2.76 2.76 0 0 0-.78-.16A2 2 0 0 0 26 20.64z"
              fill="currentColor"/>
        <path d="M20.27 22.74a2.76 2.76 0 0 1-.78.16 1.86 1.86 0 1 1 0-3.73 2.76 2.76 0 0 1 .78.16.15.15 0 0 0 .23-.08v-1.09a.86.86 0 0 0-.85-.85h-1.32a.86.86 0 0 1-.85-.85 1.44 1.44 0 0 1 .16-.54 1.12 1.12 0 0 0 .16-.54 1 1 0 0 0-.62-.93 1 1 0 0 0-.47-.08 1 1 0 0 0-1 1 .74.74 0 0 0 .16.54 1.12 1.12 0 0 1 .16.54.86.86 0 0 1-.85.85h-1.27a.86.86 0 0 0-.85.85v1.32a.86.86 0 0 1-.85.85 1.44 1.44 0 0 1-.54-.16c-.08-.16-.23-.16-.47-.16a1.08 1.08 0 0 0-.93.54 1.16 1.16 0 0 0 .08 1 1 1 0 0 0 .85.47.74.74 0 0 0 .54-.16 1.12 1.12 0 0 1 .54-.16.86.86 0 0 1 .85.85v1.36a.86.86 0 0 0 .85.85h1.32a.86.86 0 0 1 .85.85 1.44 1.44 0 0 1-.16.54 1.12 1.12 0 0 0-.16.54 1.08 1.08 0 0 0 .54.93 1 1 0 0 0 .47.08 1.16 1.16 0 0 0 1.09-1 .74.74 0 0 0-.16-.54 1.12 1.12 0 0 1-.16-.54.86.86 0 0 1 .85-.85h1.32a.86.86 0 0 0 .85-.85v-1a.28.28 0 0 0-.39-.16c.11-.09.03-.09.03-.01zM28 9h-5.79a.86.86 0 0 0-.85.85v1.32a.86.86 0 0 1-.85.85 1.44 1.44 0 0 1-.54-.16 1.12 1.12 0 0 0-.54-.16 1.08 1.08 0 0 0-.93.54 1 1 0 0 0 .08 1 1 1 0 0 0 .85.47.74.74 0 0 0 .54-.16 1.12 1.12 0 0 1 .54-.16.86.86 0 0 1 .85.85v1.36a.86.86 0 0 0 .85.85h1.16a.17.17 0 0 0 .16-.16v-.08l-.23-.7a1.79 1.79 0 0 1 1.47-1.94h.39A1.89 1.89 0 0 1 27 15.44a1.77 1.77 0 0 1-.23.85c0 .08 0 .16.08.16h1.24a.86.86 0 0 0 .91-.85V9.85A1 1 0 0 0 28 9z"
              fill="currentColor"/>
    </symbol>
    <symbol viewBox="0 0 36 36" id="atlassian-marketplace">
        <title>Product apps</title>
        <path d="M26 20.64a1.81 1.81 0 0 0 1.47 2.17h.39a2.76 2.76 0 0 0 .78-.16.15.15 0 0 1 .23.08v1.17a.86.86 0 0 1-.85.85h-1.31a.86.86 0 0 0-.85.85 1.44 1.44 0 0 0 .16.54 1.12 1.12 0 0 1 .16.54 1 1 0 0 1-1 1 1 1 0 0 1-.47-.08 1.21 1.21 0 0 1-.62-1 .74.74 0 0 1 .16-.54 1.12 1.12 0 0 0 .16-.54.86.86 0 0 0-.85-.85h-1.35a.86.86 0 0 1-.85-.85V22.5a.86.86 0 0 0-.85-.85 1.44 1.44 0 0 0-.54.16 1.12 1.12 0 0 1-.54.16 1.11 1.11 0 0 1-.93-.47 1 1 0 0 1-.08-1 1.18 1.18 0 0 1 .93-.54.74.74 0 0 1 .54.16 1.12 1.12 0 0 0 .54.16.86.86 0 0 0 .85-.85V18a.86.86 0 0 1 .85-.85h1.32a.86.86 0 0 0 .85-.85 1.44 1.44 0 0 0-.16-.54 1.12 1.12 0 0 1-.16-.54 1 1 0 0 1 1-1 1 1 0 0 1 .47.08 1 1 0 0 1 .62.93.74.74 0 0 1-.16.54 1.12 1.12 0 0 0-.16.54.86.86 0 0 0 .85.85H28a.86.86 0 0 1 .85.85v1.09c0 .08-.08.16-.23.16h-.08a2.76 2.76 0 0 0-.78-.16A2 2 0 0 0 26 20.64z"
              fill="currentColor"/>
        <path d="M20.27 22.74a2.76 2.76 0 0 1-.78.16 1.86 1.86 0 1 1 0-3.73 2.76 2.76 0 0 1 .78.16.15.15 0 0 0 .23-.08v-1.09a.86.86 0 0 0-.85-.85h-1.32a.86.86 0 0 1-.85-.85 1.44 1.44 0 0 1 .16-.54 1.12 1.12 0 0 0 .16-.54 1 1 0 0 0-.62-.93 1 1 0 0 0-.47-.08 1 1 0 0 0-1 1 .74.74 0 0 0 .16.54 1.12 1.12 0 0 1 .16.54.86.86 0 0 1-.85.85h-1.27a.86.86 0 0 0-.85.85v1.32a.86.86 0 0 1-.85.85 1.44 1.44 0 0 1-.54-.16c-.08-.16-.23-.16-.47-.16a1.08 1.08 0 0 0-.93.54 1.16 1.16 0 0 0 .08 1 1 1 0 0 0 .85.47.74.74 0 0 0 .54-.16 1.12 1.12 0 0 1 .54-.16.86.86 0 0 1 .85.85v1.36a.86.86 0 0 0 .85.85h1.32a.86.86 0 0 1 .85.85 1.44 1.44 0 0 1-.16.54 1.12 1.12 0 0 0-.16.54 1.08 1.08 0 0 0 .54.93 1 1 0 0 0 .47.08 1.16 1.16 0 0 0 1.09-1 .74.74 0 0 0-.16-.54 1.12 1.12 0 0 1-.16-.54.86.86 0 0 1 .85-.85h1.32a.86.86 0 0 0 .85-.85v-1a.28.28 0 0 0-.39-.16c.11-.09.03-.09.03-.01zM28 9h-5.79a.86.86 0 0 0-.85.85v1.32a.86.86 0 0 1-.85.85 1.44 1.44 0 0 1-.54-.16 1.12 1.12 0 0 0-.54-.16 1.08 1.08 0 0 0-.93.54 1 1 0 0 0 .08 1 1 1 0 0 0 .85.47.74.74 0 0 0 .54-.16 1.12 1.12 0 0 1 .54-.16.86.86 0 0 1 .85.85v1.36a.86.86 0 0 0 .85.85h1.16a.17.17 0 0 0 .16-.16v-.08l-.23-.7a1.79 1.79 0 0 1 1.47-1.94h.39A1.89 1.89 0 0 1 27 15.44a1.77 1.77 0 0 1-.23.85c0 .08 0 .16.08.16h1.24a.86.86 0 0 0 .91-.85V9.85A1 1 0 0 0 28 9z"
              fill="currentColor"/>
    </symbol>
    <symbol viewBox="0 0 36 36" id="aug-leaders">
        <title>AUG Leaders</title>
        <path d="M7.28 8.93l.91.27.91 6 4-4.56 2.1.64.82 6 4.11-4.56 2.1.64.82 6 4.11-4.56 1.1.36h.09a.62.62 0 0 0 .55-.36c.09-.18-.09-.73-.37-.73L7.56 8a.4.4 0 0 0-.56.38c-.08.19.1.46.28.55zM28.54 20.52l-.73.09-2.1 5.84-3-5.2-1.92.18-2.1 5.84-3.1-5.27-2.37.27L11.11 28l-3-5.2-.55.09h-.1a.46.46 0 1 1 0-.91l21-2.37A.62.62 0 0 1 29 20c.09.16-.18.52-.46.52z"
              fill="currentColor"/>
    </symbol>
    <symbol viewBox="0 0 36 36" id="automotive">
        <title>Automotive</title>
        <path d="M25.4 19.87a1.42 1.42 0 1 0 1.43 1.43 1.42 1.42 0 0 0-1.43-1.43zm-14.8 0A1.42 1.42 0 1 0 12 21.3a1.42 1.42 0 0 0-1.4-1.43zm1.84-9.06a1.45 1.45 0 0 0-1.37 1.11l-1.26 4.5h16.38l-1.26-4.5a1.45 1.45 0 0 0-1.37-1.1zM9.27 25.39v-1.14h-.45a1.07 1.07 0 0 1-1-1.12v-3.8h-1a1.85 1.85 0 0 1-1.85-1.85A1.06 1.06 0 0 1 6 16.42h1.22a2 2 0 0 1 .77.15c.06-.33.11-.66.2-1L10 10.68a1.81 1.81 0 0 1 1.7-1.38h12.58A1.81 1.81 0 0 1 26 10.68l1.82 4.9a9.91 9.91 0 0 1 .2 1 2 2 0 0 1 .77-.15H30a1.06 1.06 0 0 1 1.06 1.06 1.85 1.85 0 0 1-1.85 1.85h-1v3.81a1.07 1.07 0 0 1-1 1.12h-.45V25.41a1.33 1.33 0 0 1-2.66-.08v-1H11.93v1.12a1.33 1.33 0 0 1-2.66 0z"
              fill="currentColor" fill-rule="evenodd"/>
    </symbol>
    <symbol viewBox="0 0 36 36" id="bamboo">
        <defs>
            <linearGradient id="aia" x1="13.3" y1="195.83" x2="13.3" y2="182.87"
                            gradientTransform="matrix(1 0 0 -1 0 206)" gradientUnits="userSpaceOnUse">
                <stop offset="0" stop-color="currentColor" stop-opacity=".4"/>
                <stop offset="1" stop-color="currentColor"/>
            </linearGradient>
            <linearGradient id="aib" x1="13.25" y1="195.83" x2="13.25" y2="182.87" xlink:href="#aia"/>
        </defs>
        <title>Bamboo</title>
        <path d="M26.91 19.5h-4.62a.57.57 0 0 0-.56.51A3.76 3.76 0 0 1 18 23.25l1.24 5.65a9.51 9.51 0 0 0 8.25-8.77.6.6 0 0 0-.57-.62zM19 19.37l6.62-5.68a.6.6 0 0 0 .05-.84l-.05-.05L19 7.13a.6.6 0 0 0-1 .46v11.36a.6.6 0 0 0 1 .43z"
              fill="currentColor"/>
        <path d="M8.59 20.74A9.51 9.51 0 0 0 18 29v-5.75a3.75 3.75 0 0 1-3.75-3.75z" fill="url(#aia)"/>
        <path d="M8.5 19.41v.09h5.75A3.75 3.75 0 0 1 18 15.76l-1.23-5.66a9.5 9.5 0 0 0-8.27 9.31" fill="url(#aib)"/>
    </symbol>
    <symbol viewBox="0 0 36 36" id="beta-feedback">
        <title>Beta Feedback</title>
        <path d="M23.83 24.43a6.06 6.06 0 0 1-5-2.74L20 21a5 5 0 0 0 3.86 2.14 4.71 4.71 0 1 0 0-9.43c-2.06 0-3.69 2.57-5.23 5.06-1.71 2.74-3.6 5.66-6.34 5.66a6 6 0 1 1-.09-12.09 4.47 4.47 0 0 1 3.34 1.46v-2.23h1.26l-.09 4.71-4.54-.17v-1.28h2.49a3.74 3.74 0 0 0-2.57-1.29 4.72 4.72 0 0 0-4.38 5.06 4.65 4.65 0 0 0 4.46 4.4c2.06 0 3.69-2.57 5.23-5.06 1.71-2.74 3.6-5.66 6.43-5.66a6 6 0 0 1 6 6 6.17 6.17 0 0 1-6 6.15z"
              fill="currentColor"/>
    </symbol>
    <symbol viewBox="0 0 36 36" id="bitbucket">
        <defs>
            <linearGradient id="aka" x1="26.93" y1="188.3" x2="18.47" y2="182.57"
                            gradientTransform="matrix(1 0 0 -1 0 206)" gradientUnits="userSpaceOnUse">
                <stop offset=".07" stop-color="currentColor" stop-opacity=".4"/>
                <stop offset="1" stop-color="currentColor"/>
            </linearGradient>
        </defs>
        <title>Bitbucket</title>
        <path fill="none" d="M16.13 20.65h3.76l.91-5.3h-5.67l1 5.3z"/>
        <path d="M26.21 15.35H20.8l-.91 5.3h-3.75l-4.42 5.25a.78.78 0 0 0 .5.19H24a.58.58 0 0 0 .58-.48z"
              fill="url(#aka)"/>
        <path d="M9.58 9.91a.58.58 0 0 0-.58.67l2.45 14.86a.78.78 0 0 0 .26.46.78.78 0 0 0 .5.19l4.54-5.44h-.64l-1-5.3h11.1l.79-4.77a.58.58 0 0 0-.47-.67H9.58z"
              fill="currentColor"/>
    </symbol>
    <symbol viewBox="0 0 36 36" id="bitbucket-pipelines">
        <defs>
            <linearGradient id="ala" x1="26.93" y1="188.3" x2="18.47" y2="182.57"
                            gradientTransform="matrix(1 0 0 -1 0 206)" gradientUnits="userSpaceOnUse">
                <stop offset=".07" stop-color="currentColor" stop-opacity=".4"/>
                <stop offset="1" stop-color="currentColor"/>
            </linearGradient>
        </defs>
        <title>Bitbucket Pipelines</title>
        <path fill="none" d="M16.13 20.65h3.76l.91-5.3h-5.67l1 5.3z"/>
        <path d="M26.21 15.35H20.8l-.91 5.3h-3.75l-4.42 5.25a.78.78 0 0 0 .5.19H24a.58.58 0 0 0 .58-.48z"
              fill="url(#ala)"/>
        <path d="M9.58 9.91a.58.58 0 0 0-.58.67l2.45 14.86a.78.78 0 0 0 .26.46.78.78 0 0 0 .5.19l4.54-5.44h-.64l-1-5.3h11.1l.79-4.77a.58.58 0 0 0-.47-.67H9.58z"
              fill="currentColor"/>
    </symbol>
    <symbol viewBox="0 0 36 36" id="bob-swift">
        <title>Product apps</title>
        <path d="M26 20.64a1.81 1.81 0 0 0 1.47 2.17h.39a2.76 2.76 0 0 0 .78-.16.15.15 0 0 1 .23.08v1.17a.86.86 0 0 1-.85.85h-1.31a.86.86 0 0 0-.85.85 1.44 1.44 0 0 0 .16.54 1.12 1.12 0 0 1 .16.54 1 1 0 0 1-1 1 1 1 0 0 1-.47-.08 1.21 1.21 0 0 1-.62-1 .74.74 0 0 1 .16-.54 1.12 1.12 0 0 0 .16-.54.86.86 0 0 0-.85-.85h-1.35a.86.86 0 0 1-.85-.85V22.5a.86.86 0 0 0-.85-.85 1.44 1.44 0 0 0-.54.16 1.12 1.12 0 0 1-.54.16 1.11 1.11 0 0 1-.93-.47 1 1 0 0 1-.08-1 1.18 1.18 0 0 1 .93-.54.74.74 0 0 1 .54.16 1.12 1.12 0 0 0 .54.16.86.86 0 0 0 .85-.85V18a.86.86 0 0 1 .85-.85h1.32a.86.86 0 0 0 .85-.85 1.44 1.44 0 0 0-.16-.54 1.12 1.12 0 0 1-.16-.54 1 1 0 0 1 1-1 1 1 0 0 1 .47.08 1 1 0 0 1 .62.93.74.74 0 0 1-.16.54 1.12 1.12 0 0 0-.16.54.86.86 0 0 0 .85.85H28a.86.86 0 0 1 .85.85v1.09c0 .08-.08.16-.23.16h-.08a2.76 2.76 0 0 0-.78-.16A2 2 0 0 0 26 20.64z"
              fill="currentColor"/>
        <path d="M20.27 22.74a2.76 2.76 0 0 1-.78.16 1.86 1.86 0 1 1 0-3.73 2.76 2.76 0 0 1 .78.16.15.15 0 0 0 .23-.08v-1.09a.86.86 0 0 0-.85-.85h-1.32a.86.86 0 0 1-.85-.85 1.44 1.44 0 0 1 .16-.54 1.12 1.12 0 0 0 .16-.54 1 1 0 0 0-.62-.93 1 1 0 0 0-.47-.08 1 1 0 0 0-1 1 .74.74 0 0 0 .16.54 1.12 1.12 0 0 1 .16.54.86.86 0 0 1-.85.85h-1.27a.86.86 0 0 0-.85.85v1.32a.86.86 0 0 1-.85.85 1.44 1.44 0 0 1-.54-.16c-.08-.16-.23-.16-.47-.16a1.08 1.08 0 0 0-.93.54 1.16 1.16 0 0 0 .08 1 1 1 0 0 0 .85.47.74.74 0 0 0 .54-.16 1.12 1.12 0 0 1 .54-.16.86.86 0 0 1 .85.85v1.36a.86.86 0 0 0 .85.85h1.32a.86.86 0 0 1 .85.85 1.44 1.44 0 0 1-.16.54 1.12 1.12 0 0 0-.16.54 1.08 1.08 0 0 0 .54.93 1 1 0 0 0 .47.08 1.16 1.16 0 0 0 1.09-1 .74.74 0 0 0-.16-.54 1.12 1.12 0 0 1-.16-.54.86.86 0 0 1 .85-.85h1.32a.86.86 0 0 0 .85-.85v-1a.28.28 0 0 0-.39-.16c.11-.09.03-.09.03-.01zM28 9h-5.79a.86.86 0 0 0-.85.85v1.32a.86.86 0 0 1-.85.85 1.44 1.44 0 0 1-.54-.16 1.12 1.12 0 0 0-.54-.16 1.08 1.08 0 0 0-.93.54 1 1 0 0 0 .08 1 1 1 0 0 0 .85.47.74.74 0 0 0 .54-.16 1.12 1.12 0 0 1 .54-.16.86.86 0 0 1 .85.85v1.36a.86.86 0 0 0 .85.85h1.16a.17.17 0 0 0 .16-.16v-.08l-.23-.7a1.79 1.79 0 0 1 1.47-1.94h.39A1.89 1.89 0 0 1 27 15.44a1.77 1.77 0 0 1-.23.85c0 .08 0 .16.08.16h1.24a.86.86 0 0 0 .91-.85V9.85A1 1 0 0 0 28 9z"
              fill="currentColor"/>
    </symbol>
    <symbol viewBox="0 0 36 36" id="capture-for-jira">
        <defs>
            <linearGradient id="ana" x1="23.21" y1="193.37" x2="18.96" y2="188.99"
                            gradientTransform="matrix(1 0 0 -1 0 206)" gradientUnits="userSpaceOnUse">
                <stop offset=".18" stop-color="currentColor" stop-opacity=".4"/>
                <stop offset="1" stop-color="currentColor"/>
            </linearGradient>
            <linearGradient id="anb" x1="18.41" y1="188.23" x2="13.5" y2="183.46" xlink:href="#ana"/>
        </defs>
        <title>Capture for Jira</title>
        <path d="M27.63 7.5h-10a4.5 4.5 0 0 0 4.5 4.5H24v1.77a4.5 4.5 0 0 0 4.5 4.5v-9.9a.87.87 0 0 0-.87-.87z"
              fill="currentColor"/>
        <path d="M22.55 12.61h-10a4.5 4.5 0 0 0 4.5 4.5h1.84v1.77a4.5 4.5 0 0 0 4.5 4.5v-9.9a.87.87 0 0 0-.84-.87z"
              fill="url(#ana)"/>
        <path d="M17.47 17.73H7.5a4.5 4.5 0 0 0 4.5 4.5h1.84V24a4.5 4.5 0 0 0 4.49 4.5v-9.91a.87.87 0 0 0-.86-.86z"
              fill="url(#anb)"/>
    </symbol>
    <symbol viewBox="0 0 36 36" id="clover">
        <defs>
            <linearGradient id="aoa" x1="15.19" y1="179.18" x2="22.26" y2="186.26"
                            gradientTransform="matrix(1 0 0 -1 0 206)" gradientUnits="userSpaceOnUse">
                <stop offset="0" stop-color="currentColor" stop-opacity=".4"/>
                <stop offset="1" stop-color="currentColor"/>
            </linearGradient>
        </defs>
        <title>Clover</title>
        <path d="M22.75 13.53a4.75 4.75 0 0 0-9.5 0 4.75 4.75 0 0 0 0 9.5l3.32-3.32a2.87 2.87 0 0 0-2.12-.71.7.7 0 0 1-.09-1.4h.09a2.57 2.57 0 0 0 2.85-2.85.7.7 0 0 1 1.4 0 2.9 2.9 0 0 0 .73 2.11 2.21 2.21 0 0 0 .45.34l3.6-3.59a4.76 4.76 0 0 0-.73-.08z"
              fill="currentColor"/>
        <path d="M22.75 13.53l-3.31 3.31a2.87 2.87 0 0 0 2.11.73.7.7 0 0 1 .09 1.4h-.09a2.57 2.57 0 0 0-2.85 2.85.7.7 0 1 1-1.4 0 2.9 2.9 0 0 0-.73-2.11L13.25 23a4.75 4.75 0 0 0 9.5 0 4.75 4.75 0 0 0 0-9.5z"
              fill="url(#aoa)"/>
    </symbol>
    <symbol viewBox="0 0 36 36" id="collection-placeholder">
        <defs>
            <linearGradient id="apa" x1="16.62" y1="75.25" x2="11.44" y2="66.29"
                            gradientTransform="matrix(1 0 0 -1 0 94)" gradientUnits="userSpaceOnUse">
                <stop offset="0" stop-color="currentColor" stop-opacity=".4"/>
                <stop offset=".92" stop-color="currentColor"/>
            </linearGradient>
        </defs>
        <title>Atlassian logo</title>
        <path d="M13.93 17.24a.57.57 0 0 0-1 .11l-4.9 9.8a.59.59 0 0 0 .52.85h6.83a.56.56 0 0 0 .52-.33c1.51-3.04.62-7.67-1.97-10.43z"
              fill="url(#apa)"/>
        <path d="M17.53 8.32a12.93 12.93 0 0 0-.75 12.77l3.29 6.58a.59.59 0 0 0 .52.33h6.83a.59.59 0 0 0 .52-.85L18.53 8.32a.56.56 0 0 0-1 0z"
              fill="currentColor"/>
    </symbol>
    <symbol viewBox="0 0 36 36" id="community-champions">
        <title>Community Champions</title>
        <path d="M22.5 25.9zM29.2 11V9.5h-3.8V8.5H10.6v1.42-.42H6.8V11s-.1 3.1 1.4 4.6a6.06 6.06 0 0 0 4.8 2l-.14-.2a11.8 11.8 0 0 0 2.54 1.9 3 3 0 0 1 1.7 3.2 4.45 4.45 0 0 1-1 2.6c-.7.9-2.7.8-2.7.8v1.6h9.1v-1.57a2.47 2.47 0 0 1-.7 0 5.22 5.22 0 0 1-2.1-.9 3.49 3.49 0 0 1-.9-2.5 2.58 2.58 0 0 1 .9-2.4 16.4 16.4 0 0 1 1.9-1.3 4.54 4.54 0 0 0 1.49-1.32l-.09.09a6.06 6.06 0 0 0 4.8-2c1.5-1.5 1.4-4.6 1.4-4.6zM9.1 14.2a5.7 5.7 0 0 1-.8-3.2h2.38v.4a12.73 12.73 0 0 0 .9 3.9 4.33 4.33 0 0 0 .26.69A4.08 4.08 0 0 1 9.1 14.2zm17.8 0a4.15 4.15 0 0 1-2.8 1.8l-.16.23a16.37 16.37 0 0 0 1.26-4.43c0-.24.08-.54.1-.85h2.4a5.7 5.7 0 0 1-.8 3.25z"
              fill="currentColor"/>
    </symbol>
    <symbol viewBox="0 0 36 36" id="compliance">
        <title>Compliance</title>
        <path d="M6 28.86h3.1v-3.11H6zm0-8.25h3.1V17.5H6zm6.49-12.75l-5.12 4.76-1.88-1.89a.41.41 0 1 1 .58-.58l1.33 1.33 4.53-4.23a.41.41 0 1 1 .56.6zm17.69 19.9H14a.46.46 0 0 1 0-.92h16.18a.46.46 0 0 1 0 .92zm0-8.25H14a.46.46 0 0 1 0-.92h16.18a.46.46 0 0 1 0 .92zm0-8.25H14a.46.46 0 0 1 0-.92h16.18a.46.46 0 0 1 0 .92z"
              fill="currentColor" fill-rule="evenodd"/>
    </symbol>
    <symbol viewBox="0 0 36 36" id="confluence">
        <defs>
            <linearGradient id="asa" x1="26.11" y1="66.11" x2="14.84" y2="72.58"
                            gradientTransform="matrix(1 0 0 -1 0 94)" gradientUnits="userSpaceOnUse">
                <stop offset="0" stop-color="currentColor" stop-opacity=".4"/>
                <stop offset="1" stop-color="currentColor"/>
            </linearGradient>
            <linearGradient id="asb" x1="499.25" y1="1666.74" x2="487.98" y2="1673.22"
                            gradientTransform="matrix(-1 0 0 1 509.14 -1658.62)" xlink:href="#asa"/>
        </defs>
        <title>Confluence</title>
        <path d="M9.65 22.7l-.57.94a.57.57 0 0 0 .19.78L13 26.7a.57.57 0 0 0 .79-.19l.55-.92c1.47-2.43 3-2.14 5.63-.86l3.69 1.76a.57.57 0 0 0 .76-.27l1.77-4a.57.57 0 0 0-.29-.75l-3.7-1.8c-5.02-2.44-9.29-2.27-12.55 3.03z"
              fill="url(#asa)"/>
        <path d="M26.35 13.31l.57-.94a.57.57 0 0 0-.19-.78L23 9.31a.57.57 0 0 0-.79.16l-.55.92c-1.47 2.43-3 2.14-5.63.86l-3.71-1.72a.57.57 0 0 0-.76.27l-1.77 4a.57.57 0 0 0 .29.75l3.72 1.77c5.02 2.46 9.29 2.3 12.55-3.01z"
              fill="url(#asb)"/>
    </symbol>
    <symbol viewBox="0 0 36 36" id="confluence-cloud">
        <defs>
            <linearGradient id="ata" x1="26.11" y1="66.11" x2="14.84" y2="72.58"
                            gradientTransform="matrix(1 0 0 -1 0 94)" gradientUnits="userSpaceOnUse">
                <stop offset="0" stop-color="currentColor" stop-opacity=".4"/>
                <stop offset="1" stop-color="currentColor"/>
            </linearGradient>
            <linearGradient id="atb" x1="499.25" y1="1666.74" x2="487.98" y2="1673.22"
                            gradientTransform="matrix(-1 0 0 1 509.14 -1658.62)" xlink:href="#ata"/>
        </defs>
        <title>Confluence Cloud</title>
        <path d="M9.65 22.7l-.57.94a.57.57 0 0 0 .19.78L13 26.7a.57.57 0 0 0 .79-.19l.55-.92c1.47-2.43 3-2.14 5.63-.86l3.69 1.76a.57.57 0 0 0 .76-.27l1.77-4a.57.57 0 0 0-.29-.75l-3.7-1.8c-5.02-2.44-9.29-2.27-12.55 3.03z"
              fill="url(#ata)"/>
        <path d="M26.35 13.31l.57-.94a.57.57 0 0 0-.19-.78L23 9.31a.57.57 0 0 0-.79.16l-.55.92c-1.47 2.43-3 2.14-5.63.86l-3.71-1.72a.57.57 0 0 0-.76.27l-1.77 4a.57.57 0 0 0 .29.75l3.72 1.77c5.02 2.46 9.29 2.3 12.55-3.01z"
              fill="url(#atb)"/>
    </symbol>
    <symbol viewBox="0 0 36 36" id="continuous-delivery">
        <title>Continuous Delivery</title>
        <path d="M23.83 24.43a6.06 6.06 0 0 1-5-2.74L20 21a5 5 0 0 0 3.86 2.14 4.71 4.71 0 1 0 0-9.43c-2.06 0-3.69 2.57-5.23 5.06-1.71 2.74-3.6 5.66-6.34 5.66a6 6 0 1 1-.09-12.09 4.47 4.47 0 0 1 3.34 1.46v-2.23h1.26l-.09 4.71-4.54-.17v-1.28h2.49a3.74 3.74 0 0 0-2.57-1.29 4.72 4.72 0 0 0-4.38 5.06 4.65 4.65 0 0 0 4.46 4.4c2.06 0 3.69-2.57 5.23-5.06 1.71-2.74 3.6-5.66 6.43-5.66a6 6 0 0 1 6 6 6.17 6.17 0 0 1-6 6.15z"
              fill="currentColor"/>
    </symbol>
    <symbol viewBox="0 0 36 36" id="crowd">
        <defs>
            <linearGradient id="ava" x1="22.56" y1="78.72" x2="24.12" y2="68.32"
                            gradientTransform="matrix(1 0 0 -1 0 94)" gradientUnits="userSpaceOnUse">
                <stop offset="0" stop-color="currentColor"/>
                <stop offset="1" stop-color="currentColor" stop-opacity=".4"/>
            </linearGradient>
        </defs>
        <title>Crowd</title>
        <path d="M18.89 9.46L18 9.14l-8.63 3.17a.57.57 0 0 0-.37.56l.18 4.89a10.63 10.63 0 0 0 5.35 9 .57.57 0 0 0 .79-.18v-.08l1.86-4.38a.28.28 0 0 0-.15-.37 3.32 3.32 0 0 1 1-6.5h.23z"
              fill="currentColor"/>
        <path d="M18 15.25a3.32 3.32 0 0 1 1 6.5.28.28 0 0 0-.19.35l1.86 4.38a.57.57 0 0 0 .75.3h.08a10.62 10.62 0 0 0 5.35-9l.15-4.91a.57.57 0 0 0-.37-.56L18 9.14z"
              fill="url(#ava)"/>
    </symbol>
    <symbol viewBox="0 0 36 36" id="crucible">
        <defs>
            <linearGradient id="awa" x1="18" y1="78.55" x2="18" y2="84.65" gradientTransform="matrix(1 0 0 -1 0 94)"
                            gradientUnits="userSpaceOnUse">
                <stop offset="0" stop-color="currentColor" stop-opacity=".4"/>
                <stop offset="1" stop-color="currentColor"/>
            </linearGradient>
        </defs>
        <title>Crucible</title>
        <path d="M23.66 15.48l-.66.23c-2.75.84-2.54 6.55-5 6.55-2.45 0-2.25-5.7-5-6.55l-.66-.23c-1.61-.6-2.66-1.46-2.82-2.42L11 21a7.1 7.1 0 0 0 14 0l1.49-7.86c-.17.86-1.23 1.74-2.83 2.34z"
              fill="currentColor"/>
        <path d="M12.34 15.48a16.51 16.51 0 0 1 5.66-.9 16.51 16.51 0 0 1 5.66.91c1.74-.67 2.84-1.61 2.84-2.67 0-2-3.81-3.58-8.5-3.58s-8.5 1.6-8.5 3.58c0 1.06 1.1 2 2.84 2.66z"
              fill="url(#awa)"/>
    </symbol>
    <symbol viewBox="0 0 36 36" id="data-center">
        <title>Data Center</title>
        <path d="M10.48 16.4a1.1 1.1 0 1 1-1.1 1.1 1.11 1.11 0 0 1 1.1-1.1zm14.4-.3h.8v2.8h-.8zM8.18 20h18.9v-5H8.18zM10.48 23.4a1.11 1.11 0 0 1 1.1 1.1 1.09 1.09 0 0 1-1.1 1 1.18 1.18 0 0 1-1.1-1.1 1 1 0 0 1 1.1-1zm14.4 2.4V23h.8v2.8zm-16.7-.1a1.32 1.32 0 0 0 1.3 1.3h16.4a1.32 1.32 0 0 0 1.3-1.3v-3.8h-19zM25.58 12h-.8V9.2h.8zm-15.1-.4a1.1 1.1 0 1 1 1.1-1.1 1.18 1.18 0 0 1-1.1 1.1zm15.4-3.5H9.48a1.32 1.32 0 0 0-1.3 1.3v3.8h18.9V9.3a1.1 1.1 0 0 0-1.2-1.2z"
              fill="currentColor"/>
    </symbol>
    <symbol viewBox="0 0 36 36" id="ecab">
        <defs>
            <linearGradient id="aya" x1="16.62" y1="75.25" x2="11.44" y2="66.29"
                            gradientTransform="matrix(1 0 0 -1 0 94)" gradientUnits="userSpaceOnUse">
                <stop offset="0" stop-color="currentColor" stop-opacity=".4"/>
                <stop offset=".92" stop-color="currentColor"/>
            </linearGradient>
        </defs>
        <title>Enterprise Cloud Customer Advisory Board logo</title>
        <path d="M13.93 17.24a.57.57 0 0 0-1 .11l-4.9 9.8a.59.59 0 0 0 .52.85h6.83a.56.56 0 0 0 .52-.33c1.51-3.04.62-7.67-1.97-10.43z"
              fill="url(#aya)"/>
        <path d="M17.53 8.32a12.93 12.93 0 0 0-.75 12.77l3.29 6.58a.59.59 0 0 0 .52.33h6.83a.59.59 0 0 0 .52-.85L18.53 8.32a.56.56 0 0 0-1 0z"
              fill="currentColor"/>
    </symbol>
    <symbol viewBox="0 0 36 36" id="education">
        <path d="M26.19 13.25c-2.45-2.12-5.33.19-8.2.19s-4.57-2.16-7.79-.44c-2.15 1.34-2.9 4.34-2.9 7.67 0 3.49 2 8 4.32 9.92 2.43 2.14 4-.25 6.37-.25s3.94 2.39 6.37.25c2.31-2 4.34-6.43 4.34-9.92 0-3.15-.7-5.89-2.51-7.42zm-4 11.62a2.78 2.78 0 0 1-1.58-.54 2.69 2.69 0 0 1-.82-1.47.2.2 0 0 1 .21-.24 2.74 2.74 0 0 1 1.59.53 2.73 2.73 0 0 1 .81 1.47.21.21 0 0 1-.18.25zm-.6-4.35a2.69 2.69 0 0 1-1.59.54.2.2 0 0 1-.21-.24 2.34 2.34 0 0 1 2.4-2 .21.21 0 0 1 .21.25 2.71 2.71 0 0 1-.78 1.45z"
              fill="currentColor"/>
        <path d="M24.76 14.75c-1.71-1.49-3.68-.34-5.68 0A1.3 1.3 0 0 0 18 16.06v11.7a1.28 1.28 0 0 0 .92 1.24c1.5.42 2.66 1.55 4.34.08a12.3 12.3 0 0 0 3.59-8.2c0-2.6-.61-4.88-2.09-6.13zm-2.54 10.12a2.78 2.78 0 0 1-1.58-.54 2.69 2.69 0 0 1-.82-1.47.2.2 0 0 1 .21-.24 2.74 2.74 0 0 1 1.59.53 2.73 2.73 0 0 1 .81 1.47.21.21 0 0 1-.21.25zm-.6-4.35a2.69 2.69 0 0 1-1.59.54.2.2 0 0 1-.21-.24 2.34 2.34 0 0 1 2.4-2 .21.21 0 0 1 .21.25 2.71 2.71 0 0 1-.81 1.45z"
              fill="none" opacity=".5"/>
        <path d="M22.05 7.74a5.54 5.54 0 0 1-1.47 3.14 5.63 5.63 0 0 1-3.21 1.34.38.38 0 0 1-.26-.07 6.68 6.68 0 0 1-2.77-3.09 6.68 6.68 0 0 1 0-4.15.5.5 0 0 1 .74-.28 6.61 6.61 0 0 1 2.76 3.09 4.5 4.5 0 0 1 .27 1.17 3.45 3.45 0 0 1 .26-.28 5.49 5.49 0 0 1 3.23-1.34.41.41 0 0 1 .45.47z"
              fill="currentColor"/>
    </symbol>
    <symbol viewBox="0 0 36 36" id="feedback-forum">
        <title>Feedback Forum</title>
        <path d="M23.83 24.43a6.06 6.06 0 0 1-5-2.74L20 21a5 5 0 0 0 3.86 2.14 4.71 4.71 0 1 0 0-9.43c-2.06 0-3.69 2.57-5.23 5.06-1.71 2.74-3.6 5.66-6.34 5.66a6 6 0 1 1-.09-12.09 4.47 4.47 0 0 1 3.34 1.46v-2.23h1.26l-.09 4.71-4.54-.17v-1.28h2.49a3.74 3.74 0 0 0-2.57-1.29 4.72 4.72 0 0 0-4.38 5.06 4.65 4.65 0 0 0 4.46 4.4c2.06 0 3.69-2.57 5.23-5.06 1.71-2.74 3.6-5.66 6.43-5.66a6 6 0 0 1 6 6 6.17 6.17 0 0 1-6 6.15z"
              fill="currentColor"/>
    </symbol>
    <symbol viewBox="0 0 36 36" id="finance">
        <title>Finance</title>
        <path d="M22 21.72a4.77 4.77 0 0 1-3.74 4.67V28a1 1 0 0 1-2.08 0v-1.61a4.78 4.78 0 0 1-3.73-4.65 1 1 0 0 1 2.08 0A2.7 2.7 0 1 0 17.18 19a4.77 4.77 0 0 1-1-9.43V8a1 1 0 0 1 2.08 0v1.62a4.78 4.78 0 0 1 3.73 4.65 1 1 0 1 1-2.08 0A2.7 2.7 0 1 0 17.17 17 4.77 4.77 0 0 1 22 21.72z"
              fill="currentColor" fill-rule="evenodd"/>
    </symbol>
    <symbol viewBox="0 0 36 36" id="fisheye">
        <defs>
            <linearGradient id="bca" x1="8.34" y1="75.78" x2="20.78" y2="72.1" gradientTransform="matrix(1 0 0 -1 0 94)"
                            gradientUnits="userSpaceOnUse">
                <stop offset="0" stop-color="currentColor" stop-opacity=".4"/>
                <stop offset="1" stop-color="currentColor"/>
            </linearGradient>
        </defs>
        <title>Fisheye</title>
        <path d="M27.94 17.85a.57.57 0 0 0 0-.5c-.7-1.41-4.58-8.06-10.55-8.06-3.17 0-5.67 2-5.67 4.82A3.48 3.48 0 0 0 15 17.84a3 3 0 0 0 3.14-3v-.09a2.05 2.05 0 0 0-.08-.58 11.75 11.75 0 0 1 3.73 3.46l-.2.33h6.31z"
              fill="currentColor"/>
        <path d="M21.74 17.68c-1 1.74-2.51 3.6-4.78 3.6a3.59 3.59 0 0 1-3.51-3.08.57.57 0 0 0-.57-.49H8.57a.57.57 0 0 0-.57.57 8.9 8.9 0 0 0 8.93 8.4c5.39 0 8.58-3.87 11-8.87a.57.57 0 0 0 0-.16z"
              fill="url(#bca)"/>
    </symbol>
    <symbol viewBox="0 0 36 36" id="fisheye-crucible">
        <defs>
            <linearGradient id="bda" x1="8.34" y1="75.78" x2="20.78" y2="72.1" gradientTransform="matrix(1 0 0 -1 0 94)"
                            gradientUnits="userSpaceOnUse">
                <stop offset="0" stop-color="currentColor" stop-opacity=".4"/>
                <stop offset="1" stop-color="currentColor"/>
            </linearGradient>
        </defs>
        <title>Fisheye</title>
        <path d="M27.94 17.85a.57.57 0 0 0 0-.5c-.7-1.41-4.58-8.06-10.55-8.06-3.17 0-5.67 2-5.67 4.82A3.48 3.48 0 0 0 15 17.84a3 3 0 0 0 3.14-3v-.09a2.05 2.05 0 0 0-.08-.58 11.75 11.75 0 0 1 3.73 3.46l-.2.33h6.31z"
              fill="currentColor"/>
        <path d="M21.74 17.68c-1 1.74-2.51 3.6-4.78 3.6a3.59 3.59 0 0 1-3.51-3.08.57.57 0 0 0-.57-.49H8.57a.57.57 0 0 0-.57.57 8.9 8.9 0 0 0 8.93 8.4c5.39 0 8.58-3.87 11-8.87a.57.57 0 0 0 0-.16z"
              fill="url(#bda)"/>
    </symbol>
    <symbol viewBox="0 0 36 36" id="general-aug">
        <title>AUG</title>
        <path d="M7.28 8.93l.91.27.91 6 4-4.56 2.1.64.82 6 4.11-4.56 2.1.64.82 6 4.11-4.56 1.1.36h.09a.62.62 0 0 0 .55-.36c.09-.18-.09-.73-.37-.73L7.56 8a.4.4 0 0 0-.56.38c-.08.19.1.46.28.55zM28.54 20.52l-.73.09-2.1 5.84-3-5.2-1.92.18-2.1 5.84-3.1-5.27-2.37.27L11.11 28l-3-5.2-.55.09h-.1a.46.46 0 1 1 0-.91l21-2.37A.62.62 0 0 1 29 20c.09.16-.18.52-.46.52z"
              fill="currentColor"/>
    </symbol>
    <symbol viewBox="0 0 36 36" id="git">
        <title>Git</title>
        <path d="M22.23 13.95a1.3 1.3 0 1 1 1.3-1.3 1.26 1.26 0 0 1-1.3 1.3zm-8.5-3.5A1.3 1.3 0 1 1 15 9.15a1.21 1.21 0 0 1-1.27 1.3zM15 27.05a1.3 1.3 0 1 1-1.3-1.3 1.26 1.26 0 0 1 1.3 1.3zm7.9-17.1a2.75 2.75 0 0 0-1.5 5.3 3.45 3.45 0 0 1-3.4 3 4.69 4.69 0 0 0-3.5 1.5v-8a2.79 2.79 0 0 0 1.9-1.9 2.75 2.75 0 1 0-3.4 1.9v12.5a2.79 2.79 0 0 0-1.9 1.9 2.75 2.75 0 1 0 3.4-1.9v-.2c0-2.5 1.4-4.3 3.5-4.3a5 5 0 0 0 4.9-4.4v-.1a2.79 2.79 0 0 0 1.9-1.9 2.68 2.68 0 0 0-1.87-3.4z"
              fill="currentColor"/>
    </symbol>
    <symbol viewBox="0 0 36 36" id="go2group">
        <title>Product apps</title>
        <path d="M26 20.64a1.81 1.81 0 0 0 1.47 2.17h.39a2.76 2.76 0 0 0 .78-.16.15.15 0 0 1 .23.08v1.17a.86.86 0 0 1-.85.85h-1.31a.86.86 0 0 0-.85.85 1.44 1.44 0 0 0 .16.54 1.12 1.12 0 0 1 .16.54 1 1 0 0 1-1 1 1 1 0 0 1-.47-.08 1.21 1.21 0 0 1-.62-1 .74.74 0 0 1 .16-.54 1.12 1.12 0 0 0 .16-.54.86.86 0 0 0-.85-.85h-1.35a.86.86 0 0 1-.85-.85V22.5a.86.86 0 0 0-.85-.85 1.44 1.44 0 0 0-.54.16 1.12 1.12 0 0 1-.54.16 1.11 1.11 0 0 1-.93-.47 1 1 0 0 1-.08-1 1.18 1.18 0 0 1 .93-.54.74.74 0 0 1 .54.16 1.12 1.12 0 0 0 .54.16.86.86 0 0 0 .85-.85V18a.86.86 0 0 1 .85-.85h1.32a.86.86 0 0 0 .85-.85 1.44 1.44 0 0 0-.16-.54 1.12 1.12 0 0 1-.16-.54 1 1 0 0 1 1-1 1 1 0 0 1 .47.08 1 1 0 0 1 .62.93.74.74 0 0 1-.16.54 1.12 1.12 0 0 0-.16.54.86.86 0 0 0 .85.85H28a.86.86 0 0 1 .85.85v1.09c0 .08-.08.16-.23.16h-.08a2.76 2.76 0 0 0-.78-.16A2 2 0 0 0 26 20.64z"
              fill="currentColor"/>
        <path d="M20.27 22.74a2.76 2.76 0 0 1-.78.16 1.86 1.86 0 1 1 0-3.73 2.76 2.76 0 0 1 .78.16.15.15 0 0 0 .23-.08v-1.09a.86.86 0 0 0-.85-.85h-1.32a.86.86 0 0 1-.85-.85 1.44 1.44 0 0 1 .16-.54 1.12 1.12 0 0 0 .16-.54 1 1 0 0 0-.62-.93 1 1 0 0 0-.47-.08 1 1 0 0 0-1 1 .74.74 0 0 0 .16.54 1.12 1.12 0 0 1 .16.54.86.86 0 0 1-.85.85h-1.27a.86.86 0 0 0-.85.85v1.32a.86.86 0 0 1-.85.85 1.44 1.44 0 0 1-.54-.16c-.08-.16-.23-.16-.47-.16a1.08 1.08 0 0 0-.93.54 1.16 1.16 0 0 0 .08 1 1 1 0 0 0 .85.47.74.74 0 0 0 .54-.16 1.12 1.12 0 0 1 .54-.16.86.86 0 0 1 .85.85v1.36a.86.86 0 0 0 .85.85h1.32a.86.86 0 0 1 .85.85 1.44 1.44 0 0 1-.16.54 1.12 1.12 0 0 0-.16.54 1.08 1.08 0 0 0 .54.93 1 1 0 0 0 .47.08 1.16 1.16 0 0 0 1.09-1 .74.74 0 0 0-.16-.54 1.12 1.12 0 0 1-.16-.54.86.86 0 0 1 .85-.85h1.32a.86.86 0 0 0 .85-.85v-1a.28.28 0 0 0-.39-.16c.11-.09.03-.09.03-.01zM28 9h-5.79a.86.86 0 0 0-.85.85v1.32a.86.86 0 0 1-.85.85 1.44 1.44 0 0 1-.54-.16 1.12 1.12 0 0 0-.54-.16 1.08 1.08 0 0 0-.93.54 1 1 0 0 0 .08 1 1 1 0 0 0 .85.47.74.74 0 0 0 .54-.16 1.12 1.12 0 0 1 .54-.16.86.86 0 0 1 .85.85v1.36a.86.86 0 0 0 .85.85h1.16a.17.17 0 0 0 .16-.16v-.08l-.23-.7a1.79 1.79 0 0 1 1.47-1.94h.39A1.89 1.89 0 0 1 27 15.44a1.77 1.77 0 0 1-.23.85c0 .08 0 .16.08.16h1.24a.86.86 0 0 0 .91-.85V9.85A1 1 0 0 0 28 9z"
              fill="currentColor"/>
    </symbol>
    <symbol viewBox="0 0 36 36" id="government">
        <title>Government</title>
        <path fill="currentColor" opacity=".5"
              d="M19.16 16.47h1.93v9.8h-1.93zM23.98 16.47h1.93v9.8h-1.93zM14.34 16.47h1.93v9.8h-1.93zM9.52 16.47h1.93v9.8H9.52z"/>
        <path fill="currentColor" fill-rule="evenodd"
              d="M18.03 5.88L6.24 14.57h2.6v1.93h18.32v-1.92h2.6l-11.73-8.7zM8.56 26.27v1.93H6.63v1.92H28.8V28.2h-1.93v-1.93H8.56z"/>
    </symbol>
    <symbol viewBox="0 0 36 36" id="groups-aug">
        <title>Atlassian User Groups</title>
        <path d="M7.28 8.93l.91.27.91 6 4-4.56 2.1.64.82 6 4.11-4.56 2.1.64.82 6 4.11-4.56 1.1.36h.09a.62.62 0 0 0 .55-.36c.09-.18-.09-.73-.37-.73L7.56 8a.4.4 0 0 0-.56.38c-.08.19.1.46.28.55zM28.54 20.52l-.73.09-2.1 5.84-3-5.2-1.92.18-2.1 5.84-3.1-5.27-2.37.27L11.11 28l-3-5.2-.55.09h-.1a.46.46 0 1 1 0-.91l21-2.37A.62.62 0 0 1 29 20c.09.16-.18.52-.46.52z"
              fill="currentColor"/>
    </symbol>
    <symbol viewBox="0 0 36 36" id="groups-default">
        <title>Groups</title>
        <path d="M10.35 9.63V11a3.36 3.36 0 0 0 0 6.71V18a2.24 2.24 0 0 0 2.23 2.24h.75v-7.06h6.53V9.63zm0 6.72a2 2 0 0 1-1.7-1 2 2 0 0 1 0-2 2 2 0 0 1 1.7-1z"
              fill="currentColor" opacity=".5"/>
        <path d="M29 19.9a3.76 3.76 0 0 0-3.72-3.79v-1.65H14.57v9.39a2.51 2.51 0 0 0 2.48 2.52h5.63a2.47 2.47 0 0 0 2.52-2.44v-.31A3.76 3.76 0 0 0 29 19.9zM27.13 21a2.19 2.19 0 0 1-1.91 1.08v-4.4A2.19 2.19 0 0 1 27.13 21z"
              fill="currentColor"/>
    </symbol>
    <symbol viewBox="0 0 36 36" id="groups-training">
        <title>Training and Certification</title>
        <path d="M18 7.51l-13.12 7.2L18 21.12l13.12-6.41zm0 8.24c-1.2 0-1.95-.87-1.73-1.73A1.74 1.74 0 0 1 18 12.87 1.74 1.74 0 0 1 19.73 14c.22.89-.53 1.75-1.73 1.75z"
              fill="currentColor"/>
        <path d="M28.59 24l-9.89 5.59a1.79 1.79 0 0 1-1.29 0L7.41 24c-.91-.37 0-2 0-2L8 18.32l10 5.05 9.65-4.9.94 3.53s.91 1.61 0 2z"
              fill="currentColor"/>
    </symbol>
    <symbol viewBox="0 0 36 36" id="hipchat">
        <defs>
            <linearGradient id="bla" x1="18" y1="66.09" x2="18" y2="77.94" gradientTransform="matrix(1 0 0 -1 0 94)"
                            gradientUnits="userSpaceOnUse">
                <stop offset="0" stop-color="currentColor" stop-opacity=".4"/>
                <stop offset="1" stop-color="currentColor"/>
            </linearGradient>
        </defs>
        <title>Hipchat</title>
        <path d="M24 23.44l.21-.16a7.53 7.53 0 0 0 3.08-5.95c0-4.41-4.14-8-9.25-8s-9.25 3.57-9.25 8 4.14 8 9.25 8a10.7 10.7 0 0 0 1.94-.18h.2A9.6 9.6 0 0 0 25 26.64c.52 0 .76-.42.43-.85A9.81 9.81 0 0 1 24 23.44zM22.83 20A6 6 0 0 1 18 22.18 6 6 0 0 1 13.16 20a.86.86 0 0 1-.21-.43.38.38 0 0 1 .34-.41.46.46 0 0 1 .25.08A7.06 7.06 0 0 0 18 20.78a6.77 6.77 0 0 0 4.44-1.6.36.36 0 0 1 .24-.09.37.37 0 0 1 .37.37 1 1 0 0 1-.21.49z"
              fill="url(#bla)"/>
    </symbol>
    <symbol viewBox="0 0 36 36" id="hipchat-cloud">
        <defs>
            <linearGradient id="bma" x1="18" y1="66.09" x2="18" y2="77.94" gradientTransform="matrix(1 0 0 -1 0 94)"
                            gradientUnits="userSpaceOnUse">
                <stop offset="0" stop-color="currentColor" stop-opacity=".4"/>
                <stop offset="1" stop-color="currentColor"/>
            </linearGradient>
        </defs>
        <title>Hipchat Cloud</title>
        <path d="M24 23.44l.21-.16a7.53 7.53 0 0 0 3.08-5.95c0-4.41-4.14-8-9.25-8s-9.25 3.57-9.25 8 4.14 8 9.25 8a10.7 10.7 0 0 0 1.94-.18h.2A9.6 9.6 0 0 0 25 26.64c.52 0 .76-.42.43-.85A9.81 9.81 0 0 1 24 23.44zM22.83 20A6 6 0 0 1 18 22.18 6 6 0 0 1 13.16 20a.86.86 0 0 1-.21-.43.38.38 0 0 1 .34-.41.46.46 0 0 1 .25.08A7.06 7.06 0 0 0 18 20.78a6.77 6.77 0 0 0 4.44-1.6.36.36 0 0 1 .24-.09.37.37 0 0 1 .37.37 1 1 0 0 1-.21.49z"
              fill="url(#bma)"/>
    </symbol>
    <symbol viewBox="0 0 36 36" id="hipchat-data-center">
        <defs>
            <linearGradient id="bna" x1="18" y1="66.09" x2="18" y2="77.94" gradientTransform="matrix(1 0 0 -1 0 94)"
                            gradientUnits="userSpaceOnUse">
                <stop offset="0" stop-color="currentColor" stop-opacity=".4"/>
                <stop offset="1" stop-color="currentColor"/>
            </linearGradient>
        </defs>
        <title>Hipchat Data Center</title>
        <path d="M24 23.44l.21-.16a7.53 7.53 0 0 0 3.08-5.95c0-4.41-4.14-8-9.25-8s-9.25 3.57-9.25 8 4.14 8 9.25 8a10.7 10.7 0 0 0 1.94-.18h.2A9.6 9.6 0 0 0 25 26.64c.52 0 .76-.42.43-.85A9.81 9.81 0 0 1 24 23.44zM22.83 20A6 6 0 0 1 18 22.18 6 6 0 0 1 13.16 20a.86.86 0 0 1-.21-.43.38.38 0 0 1 .34-.41.46.46 0 0 1 .25.08A7.06 7.06 0 0 0 18 20.78a6.77 6.77 0 0 0 4.44-1.6.36.36 0 0 1 .24-.09.37.37 0 0 1 .37.37 1 1 0 0 1-.21.49z"
              fill="url(#bna)"/>
    </symbol>
    <symbol viewBox="0 0 36 36" id="identity-manager">
        <title>Identity Manager</title>
        <path d="M23 13.83h-.65v-.5a1.77 1.77 0 0 0 0-.23 4.33 4.33 0 0 0-8.65 0 1.77 1.77 0 0 0 0 .23v.5H13A2.14 2.14 0 0 0 10.88 16v8.91A2.14 2.14 0 0 0 13 27h10a2.14 2.14 0 0 0 2.14-2.13V16A2.14 2.14 0 0 0 23 13.83zm-3.69 7.44v.87a1.29 1.29 0 0 1-2.58 0v-.87a2.14 2.14 0 1 1 3.42-1.71 2.15 2.15 0 0 1-.86 1.71zm.88-7.44h-4.36v-.5a2.17 2.17 0 0 1 4.34 0z"
              fill="currentColor"/>
    </symbol>
    <symbol viewBox="0 0 36 36" id="jira">
        <defs>
            <linearGradient id="bpa" x1="23.21" y1="193.37" x2="18.96" y2="188.99"
                            gradientTransform="matrix(1 0 0 -1 0 206)" gradientUnits="userSpaceOnUse">
                <stop offset=".18" stop-color="currentColor" stop-opacity=".4"/>
                <stop offset="1" stop-color="currentColor"/>
            </linearGradient>
            <linearGradient id="bpb" x1="18.41" y1="188.23" x2="13.5" y2="183.46" xlink:href="#bpa"/>
        </defs>
        <title>Jira</title>
        <path d="M27.63 7.5h-10a4.5 4.5 0 0 0 4.5 4.5H24v1.77a4.5 4.5 0 0 0 4.5 4.5v-9.9a.87.87 0 0 0-.87-.87z"
              fill="currentColor"/>
        <path d="M22.55 12.61h-10a4.5 4.5 0 0 0 4.5 4.5h1.84v1.77a4.5 4.5 0 0 0 4.5 4.5v-9.9a.87.87 0 0 0-.84-.87z"
              fill="url(#bpa)"/>
        <path d="M17.47 17.73H7.5a4.5 4.5 0 0 0 4.5 4.5h1.84V24a4.5 4.5 0 0 0 4.49 4.5v-9.91a.87.87 0 0 0-.86-.86z"
              fill="url(#bpb)"/>
    </symbol>
    <symbol viewBox="0 0 36 36" id="jira-core">
        <defs>
            <linearGradient id="bqa" x1="20.72" y1="-35.63" x2="25.02" y2="-39.73"
                            gradientTransform="matrix(1 0 0 -1 0 -18)" gradientUnits="userSpaceOnUse">
                <stop offset=".17" stop-color="currentColor" stop-opacity=".4"/>
                <stop offset="1" stop-color="currentColor"/>
            </linearGradient>
        </defs>
        <title>Jira Core</title>
        <path d="M19.68 21.23a6.06 6.06 0 0 0 6.06 6.06V15.22l-6.06 4.15z" fill="url(#bqa)"/>
        <path d="M25.74 15.22V9.61a.9.9 0 0 0-1.41-.74l-14.06 9.6a6.06 6.06 0 0 0 8.41 1.6z" fill="currentColor"/>
    </symbol>
    <symbol viewBox="0 0 36 36" id="jira-service-desk">
        <defs>
            <linearGradient id="bra" x1="21.46" y1="-36.35" x2="23.98" y2="-43.82"
                            gradientTransform="matrix(1 .01 .01 -1 -1.82 -19.89)" gradientUnits="userSpaceOnUse">
                <stop offset="0" stop-color="currentColor" stop-opacity=".4"/>
                <stop offset="1" stop-color="currentColor"/>
            </linearGradient>
        </defs>
        <title>Jira Service Desk</title>
        <path d="M19.65 15.73h5.88a.92.92 0 0 1 .73 1.47l-8.69 11.61a6.17 6.17 0 0 1-1.25-8.63z" fill="url(#bra)"/>
        <path d="M16.32 20.18h-5.85a.92.92 0 0 1-.73-1.47l8.6-11.49a6.17 6.17 0 0 1 1.25 8.63z" fill="currentColor"/>
    </symbol>
    <symbol viewBox="0 0 36 36" id="jira-software">
        <defs>
            <linearGradient id="bsa" x1="17.83" y1="-29.2" x2="13.44" y2="-33.59"
                            gradientTransform="matrix(1 0 0 -1 0 -18)" gradientUnits="userSpaceOnUse">
                <stop offset=".07" stop-color="currentColor" stop-opacity=".4"/>
                <stop offset="1" stop-color="currentColor"/>
            </linearGradient>
            <linearGradient id="bsb" x1="18.28" y1="-42.69" x2="23.09" y2="-37.88"
                            gradientTransform="matrix(1 0 0 -1 0 -18)" gradientUnits="userSpaceOnUse">
                <stop offset=".07" stop-color="currentColor" stop-opacity=".4"/>
                <stop offset=".91" stop-color="currentColor"/>
            </linearGradient>
        </defs>
        <title>Jira Software</title>
        <path d="M18 28.76a5.36 5.36 0 0 0 0-7.57l-7-7-3.16 3.21a.85.85 0 0 0 0 1.2L18 28.76zM28.16 17.4L18 7.24a5.36 5.36 0 0 0 0 7.55l7 7 3.18-3.18a.85.85 0 0 0-.02-1.21z"
              fill="currentColor"/>
        <path d="M18 14.82a5.36 5.36 0 0 1 0-7.55l-7.24 7.24 3.79 3.79z" fill="url(#bsa)"/>
        <path d="M21.47 17.71L18 21.18a5.36 5.36 0 0 1 0 7.57l7.26-7.26z" fill="url(#bsb)"/>
    </symbol>
    <symbol viewBox="0 0 36 36" id="life-sciences">
        <title>Life Sciences</title>
        <path d="M24.68 29a1 1 0 0 1-1-1c0-4.51-3.05-6.79-6.28-9.21-3.48-2.6-7.08-5.3-7.08-10.79a1 1 0 0 1 2 0c0 4.51 3 6.79 6.28 9.21 3.48 2.61 7.08 5.31 7.08 10.81a1 1 0 0 1-1 1"
              fill="currentColor" fill-rule="evenodd" opacity=".5"/>
        <path d="M11.32 29a1 1 0 0 1-1-1c0-5.51 3.6-8.21 7.08-10.81 3.23-2.42 6.28-4.71 6.28-9.21a1 1 0 0 1 2 0c0 5.51-3.6 8.2-7.08 10.82-3.23 2.42-6.28 4.71-6.28 9.21a1 1 0 0 1-1 1"
              fill="currentColor" fill-rule="evenodd"/>
        <path d="M14 23.14a.75.75 0 0 1 0-1.5l8.18-.09a.75.75 0 0 1 0 1.5l-8.18.09zM13.86 14.45a.75.75 0 0 1 0-1.5l8.14-.09a.75.75 0 0 1 0 1.5l-8.18.09zM12.21 27.67a.75.75 0 0 1 0-1.5L23.88 26a.75.75 0 0 1 0 1.5l-11.67.13zM12 10a.75.75 0 0 1 0-1.5l11.67-.13a.75.75 0 0 1 0 1.5L12 10z"
              fill="currentColor" fill-rule="evenodd"/>
    </symbol>
    <symbol viewBox="0 0 36 36" id="mod-chat">
        <title>Mod Chat</title>
        <path d="M22.9 27.11h-9.8V8.93h9.8zM24 6.63H12a1.15 1.15 0 0 0-1.2 1.15v20.44a1.15 1.15 0 0 0 1.2 1.15h12a1.15 1.15 0 0 0 1.15-1.15V7.78A1.2 1.2 0 0 0 24 6.63z"
              fill="currentColor"/>
        <circle cx="18" cy="18.04" r="1.7" fill="currentColor"/>
        <circle cx="18" cy="13.49" r="1.7" fill="currentColor"/>
        <circle cx="18" cy="22.6" r="1.7" fill="currentColor"/>
    </symbol>
    <symbol viewBox="0 0 36 36" id="new-to-confluence">
        <defs>
            <linearGradient id="bva" x1="26.11" y1="66.11" x2="14.84" y2="72.58"
                            gradientTransform="matrix(1 0 0 -1 0 94)" gradientUnits="userSpaceOnUse">
                <stop offset="0" stop-color="currentColor" stop-opacity=".4"/>
                <stop offset="1" stop-color="currentColor"/>
            </linearGradient>
            <linearGradient id="bvb" x1="499.25" y1="1666.74" x2="487.98" y2="1673.22"
                            gradientTransform="matrix(-1 0 0 1 509.14 -1658.62)" xlink:href="#bva"/>
        </defs>
        <title>Confluence</title>
        <path d="M9.65 22.7l-.57.94a.57.57 0 0 0 .19.78L13 26.7a.57.57 0 0 0 .79-.19l.55-.92c1.47-2.43 3-2.14 5.63-.86l3.69 1.76a.57.57 0 0 0 .76-.27l1.77-4a.57.57 0 0 0-.29-.75l-3.7-1.8c-5.02-2.44-9.29-2.27-12.55 3.03z"
              fill="url(#bva)"/>
        <path d="M26.35 13.31l.57-.94a.57.57 0 0 0-.19-.78L23 9.31a.57.57 0 0 0-.79.16l-.55.92c-1.47 2.43-3 2.14-5.63.86l-3.71-1.72a.57.57 0 0 0-.76.27l-1.77 4a.57.57 0 0 0 .29.75l3.72 1.77c5.02 2.46 9.29 2.3 12.55-3.01z"
              fill="url(#bvb)"/>
    </symbol>
    <symbol viewBox="0 0 36 36" id="new-to-jira">
        <defs>
            <linearGradient id="bwa" x1="23.21" y1="193.37" x2="18.96" y2="188.99"
                            gradientTransform="matrix(1 0 0 -1 0 206)" gradientUnits="userSpaceOnUse">
                <stop offset=".18" stop-color="currentColor" stop-opacity=".4"/>
                <stop offset="1" stop-color="currentColor"/>
            </linearGradient>
            <linearGradient id="bwb" x1="18.41" y1="188.23" x2="13.5" y2="183.46" xlink:href="#bwa"/>
        </defs>
        <title>Jira icon</title>
        <path d="M27.63 7.5h-10a4.5 4.5 0 0 0 4.5 4.5H24v1.77a4.5 4.5 0 0 0 4.5 4.5v-9.9a.87.87 0 0 0-.87-.87z"
              fill="currentColor"/>
        <path d="M22.55 12.61h-10a4.5 4.5 0 0 0 4.5 4.5h1.84v1.77a4.5 4.5 0 0 0 4.5 4.5v-9.9a.87.87 0 0 0-.84-.87z"
              fill="url(#bwa)"/>
        <path d="M17.47 17.73H7.5a4.5 4.5 0 0 0 4.5 4.5h1.84V24a4.5 4.5 0 0 0 4.49 4.5v-9.91a.87.87 0 0 0-.86-.86z"
              fill="url(#bwb)"/>
    </symbol>
    <symbol viewBox="0 0 36 36" id="off-topic">
        <title>Off-topic</title>
        <path d="M10.35 9.63V11a3.36 3.36 0 0 0 0 6.71V18a2.24 2.24 0 0 0 2.23 2.24h.75v-7.06h6.53V9.63zm0 6.72a2 2 0 0 1-1.7-1 2 2 0 0 1 0-2 2 2 0 0 1 1.7-1z"
              fill="currentColor" opacity=".5"/>
        <path d="M29 19.9a3.76 3.76 0 0 0-3.72-3.79v-1.65H14.57v9.39a2.51 2.51 0 0 0 2.48 2.52h5.63a2.47 2.47 0 0 0 2.52-2.44v-.31A3.76 3.76 0 0 0 29 19.9zM27.13 21a2.19 2.19 0 0 1-1.91 1.08v-4.4A2.19 2.19 0 0 1 27.13 21z"
              fill="currentColor"/>
    </symbol>
    <symbol viewBox="0 0 36 36" id="portfolio-for-jira">
        <defs>
            <linearGradient id="bya" x1="23.21" y1="193.37" x2="18.96" y2="188.99"
                            gradientTransform="matrix(1 0 0 -1 0 206)" gradientUnits="userSpaceOnUse">
                <stop offset=".18" stop-color="currentColor" stop-opacity=".4"/>
                <stop offset="1" stop-color="currentColor"/>
            </linearGradient>
            <linearGradient id="byb" x1="18.41" y1="188.23" x2="13.5" y2="183.46" xlink:href="#bya"/>
        </defs>
        <title>Portfolio for Jira</title>
        <path d="M27.63 7.5h-10a4.5 4.5 0 0 0 4.5 4.5H24v1.77a4.5 4.5 0 0 0 4.5 4.5v-9.9a.87.87 0 0 0-.87-.87z"
              fill="currentColor"/>
        <path d="M22.55 12.61h-10a4.5 4.5 0 0 0 4.5 4.5h1.84v1.77a4.5 4.5 0 0 0 4.5 4.5v-9.9a.87.87 0 0 0-.84-.87z"
              fill="url(#bya)"/>
        <path d="M17.47 17.73H7.5a4.5 4.5 0 0 0 4.5 4.5h1.84V24a4.5 4.5 0 0 0 4.49 4.5v-9.91a.87.87 0 0 0-.86-.86z"
              fill="url(#byb)"/>
    </symbol>
    <symbol viewBox="0 0 36 36" id="questions-for-confluence">
        <defs>
            <linearGradient id="bza" x1="26.11" y1="66.11" x2="14.84" y2="72.58"
                            gradientTransform="matrix(1 0 0 -1 0 94)" gradientUnits="userSpaceOnUse">
                <stop offset="0" stop-color="currentColor" stop-opacity=".4"/>
                <stop offset="1" stop-color="currentColor"/>
            </linearGradient>
            <linearGradient id="bzb" x1="499.25" y1="1666.74" x2="487.98" y2="1673.22"
                            gradientTransform="matrix(-1 0 0 1 509.14 -1658.62)" xlink:href="#bza"/>
        </defs>
        <title>Questions for Confluence</title>
        <path d="M9.65 22.7l-.57.94a.57.57 0 0 0 .19.78L13 26.7a.57.57 0 0 0 .79-.19l.55-.92c1.47-2.43 3-2.14 5.63-.86l3.69 1.76a.57.57 0 0 0 .76-.27l1.77-4a.57.57 0 0 0-.29-.75l-3.7-1.8c-5.02-2.44-9.29-2.27-12.55 3.03z"
              fill="url(#bza)"/>
        <path d="M26.35 13.31l.57-.94a.57.57 0 0 0-.19-.78L23 9.31a.57.57 0 0 0-.79.16l-.55.92c-1.47 2.43-3 2.14-5.63.86l-3.71-1.72a.57.57 0 0 0-.76.27l-1.77 4a.57.57 0 0 0 .29.75l3.72 1.77c5.02 2.46 9.29 2.3 12.55-3.01z"
              fill="url(#bzb)"/>
    </symbol>
    <symbol viewBox="0 0 36 36" id="sourcetree">
        <defs>
            <linearGradient id="caa" x1="22.08" y1="-40.14" x2="22.08" y2="-31.49"
                            gradientTransform="matrix(1 0 0 -1 0 -18)" gradientUnits="userSpaceOnUse">
                <stop offset="0" stop-color="currentColor" stop-opacity=".4"/>
                <stop offset="1" stop-color="currentColor"/>
            </linearGradient>
        </defs>
        <title>Sourcetree</title>
        <path d="M20.51 21.14A2.52 2.52 0 0 0 18 18.62a2.75 2.75 0 1 1 0-5.51 2.76 2.76 0 0 1 .54.05V7.75a4.83 4.83 0 0 0-.54 0 8.14 8.14 0 0 0-2.52 15.89v4.06a.57.57 0 0 0 .57.57h3.89a.57.57 0 0 0 .57-.57z"
              fill="currentColor"/>
        <path d="M18 7.73v5.39a2.75 2.75 0 1 1 0 5.51 2.52 2.52 0 0 1 2.52 2.52v2.48A8.14 8.14 0 0 0 18 7.73z"
              fill="url(#caa)"/>
    </symbol>
    <symbol viewBox="0 0 36 36" id="sourcetree-enterprise">
        <defs>
            <linearGradient id="cba" x1="22.08" y1="-40.14" x2="22.08" y2="-31.49"
                            gradientTransform="matrix(1 0 0 -1 0 -18)" gradientUnits="userSpaceOnUse">
                <stop offset="0" stop-color="currentColor" stop-opacity=".4"/>
                <stop offset="1" stop-color="currentColor"/>
            </linearGradient>
        </defs>
        <title>Sourcetree Enterprise</title>
        <path d="M20.51 21.14A2.52 2.52 0 0 0 18 18.62a2.75 2.75 0 1 1 0-5.51 2.76 2.76 0 0 1 .54.05V7.75a4.83 4.83 0 0 0-.54 0 8.14 8.14 0 0 0-2.52 15.89v4.06a.57.57 0 0 0 .57.57h3.89a.57.57 0 0 0 .57-.57z"
              fill="currentColor"/>
        <path d="M18 7.73v5.39a2.75 2.75 0 1 1 0 5.51 2.52 2.52 0 0 1 2.52 2.52v2.48A8.14 8.14 0 0 0 18 7.73z"
              fill="url(#cba)"/>
    </symbol>
    <symbol viewBox="0 0 36 36" id="statuspage">
        <defs>
            <linearGradient id="cca" x1="18" y1="-33.34" x2="18" y2="-40.96" gradientTransform="matrix(1 0 0 -1 0 -18)"
                            gradientUnits="userSpaceOnUse">
                <stop offset="0" stop-color="currentColor" stop-opacity=".4"/>
                <stop offset="1" stop-color="currentColor"/>
            </linearGradient>
        </defs>
        <title>Statuspage</title>
        <circle cx="18" cy="21.15" r="5.01" fill="url(#cca)"/>
        <path d="M7.44 14.78l2.7 3.2a.57.57 0 0 0 .8.06c4.36-3.9 9.77-3.9 14.12 0a.57.57 0 0 0 .8-.06l2.7-3.2a.57.57 0 0 0 0-.78 15.36 15.36 0 0 0-21 0 .57.57 0 0 0-.12.78z"
              fill="currentColor"/>
    </symbol>
    <symbol viewBox="0 0 36 36" id="stride">
        <defs>
            <linearGradient id="cda" x1="17.22" y1="190.94" x2="8.87" y2="184.83"
                            gradientTransform="matrix(1 0 0 -1 0 206)" gradientUnits="userSpaceOnUse">
                <stop offset=".18" stop-color="currentColor" stop-opacity=".4"/>
                <stop offset="1" stop-color="currentColor"/>
            </linearGradient>
        </defs>
        <title>Stride</title>
        <path d="M13.84 10.34v3.06c0 4.24-2.13 5.88-4.84 6.13a.56.56 0 0 0-.5.56v5a.56.56 0 0 0 .56.56C15.87 25.31 20 20.37 20 14.23v-3.89z"
              fill="url(#cda)"/>
        <path d="M27.44 24.85l-7.18-14.51h-6.42l7.58 14.87a.84.84 0 0 0 .74.45h4.79a.56.56 0 0 0 .49-.81z"
              fill="currentColor"/>
    </symbol>
    <symbol viewBox="0 0 36 36" id="stride-ideas">
        <defs>
            <linearGradient id="cea" x1="17.22" y1="190.94" x2="8.87" y2="184.83"
                            gradientTransform="matrix(1 0 0 -1 0 206)" gradientUnits="userSpaceOnUse">
                <stop offset=".18" stop-color="currentColor" stop-opacity=".4"/>
                <stop offset="1" stop-color="currentColor"/>
            </linearGradient>
        </defs>
        <title>Stride</title>
        <path d="M13.84 10.34v3.06c0 4.24-2.13 5.88-4.84 6.13a.56.56 0 0 0-.5.56v5a.56.56 0 0 0 .56.56C15.87 25.31 20 20.37 20 14.23v-3.89z"
              fill="url(#cea)"/>
        <path d="M27.44 24.85l-7.18-14.51h-6.42l7.58 14.87a.84.84 0 0 0 .74.45h4.79a.56.56 0 0 0 .49-.81z"
              fill="currentColor"/>
    </symbol>
    <symbol viewBox="0 0 36 36" id="summit">
        <title>Summit</title>
        <path d="M21.15 20.5a.55.55 0 0 1-.5.3h-.1a.76.76 0 0 1-.5-.2l-2.9-2.6-1 1.4a.78.78 0 0 1-1 .2l-.1-.1L13 17.3l-5.8 8.9h21.7l-5.5-8.3z"
              fill="currentColor"/>
        <path d="M17.8 9.8l4.5 6.8-1.9 2.3-2.9-2.6a.79.79 0 0 0-1.1.1v.1l-1 1.4-1.7-1.7z" fill="currentColor"/>
    </symbol>
    <symbol viewBox="0 0 36 36" id="team-calendars-for-confluence">
        <defs>
            <linearGradient id="cga" x1="26.11" y1="66.11" x2="14.84" y2="72.58"
                            gradientTransform="matrix(1 0 0 -1 0 94)" gradientUnits="userSpaceOnUse">
                <stop offset="0" stop-color="currentColor" stop-opacity=".4"/>
                <stop offset="1" stop-color="currentColor"/>
            </linearGradient>
            <linearGradient id="cgb" x1="499.25" y1="1666.74" x2="487.98" y2="1673.22"
                            gradientTransform="matrix(-1 0 0 1 509.14 -1658.62)" xlink:href="#cga"/>
        </defs>
        <title>Team Calendars for Confluence</title>
        <path d="M9.65 22.7l-.57.94a.57.57 0 0 0 .19.78L13 26.7a.57.57 0 0 0 .79-.19l.55-.92c1.47-2.43 3-2.14 5.63-.86l3.69 1.76a.57.57 0 0 0 .76-.27l1.77-4a.57.57 0 0 0-.29-.75l-3.7-1.8c-5.02-2.44-9.29-2.27-12.55 3.03z"
              fill="url(#cga)"/>
        <path d="M26.35 13.31l.57-.94a.57.57 0 0 0-.19-.78L23 9.31a.57.57 0 0 0-.79.16l-.55.92c-1.47 2.43-3 2.14-5.63.86l-3.71-1.72a.57.57 0 0 0-.76.27l-1.77 4a.57.57 0 0 0 .29.75l3.72 1.77c5.02 2.46 9.29 2.3 12.55-3.01z"
              fill="url(#cgb)"/>
    </symbol>
    <symbol viewBox="0 0 36 36" id="team-playbook">
        <title>Team Playbook</title>
        <path d="M18.46 24.91h-1a.5.5 0 0 0 0 1h1a.5.5 0 0 0 0-1zM21.26 24.71a2.92 2.92 0 0 1-.9.2.44.44 0 0 0-.4.6c.1.3.3.5.6.4a4.25 4.25 0 0 0 1.1-.2.45.45 0 0 0 .3-.6.51.51 0 0 0-.7-.4zM15.46 24.91h-.6a.5.5 0 0 0 0 1h.6a.5.5 0 0 0 0-1zM11.36 24.91l2.1-2.1a.78.78 0 1 0-1.1-1.1l-2.1 2.1-2.1-2.1a.78.78 0 1 0-1.1 1.1l2.2 2.1L7.16 27a.78.78 0 1 0 1.1 1.1l2.1-2.1 2.1 2.1.1.1a.78.78 0 0 0 1-1.2zM9 13.51l.8-.8v7.5a.5.5 0 1 0 1 0v-7.4l.8.8a.49.49 0 0 0 .7-.7l-2-2-2 2a.48.48 0 0 0 0 .7.62.62 0 0 0 .7-.1zM23.56 23.21l-.6.6a.49.49 0 0 0 .7.7 6 6 0 0 0 .8-.8.43.43 0 0 0-.1-.7.72.72 0 0 0-.8.2zM25.16 17.31a.47.47 0 0 0-.5.5v1a.5.5 0 0 0 1 0v-1a.47.47 0 0 0-.5-.5zM25.16 14.11a2.5 2.5 0 1 1 2.5-2.5 2.48 2.48 0 0 1-2.5 2.5zm0-6.5a4 4 0 1 0 4 4 4 4 0 0 0-4-4zM25.16 20.31a.46.46 0 0 0-.5.4 2.92 2.92 0 0 1-.2.9.42.42 0 0 0 .3.6H25a.55.55 0 0 0 .5-.3c.1-.3.2-.7.3-1.1-.14-.2-.34-.5-.64-.5z"
              fill="currentColor"/>
    </symbol>
    <symbol viewBox="0 0 36 36" id="teamwork">
        <title>Teamwork</title>
        <path d="M18.7 21.3h-1.6v-9.8h1.5v9.8zM21 7.5a2.78 2.78 0 0 0-3 3 2.78 2.78 0 0 0-3-3H9v16h6a2.78 2.78 0 0 1 3 3 2.78 2.78 0 0 1 3-3h6v-16z"
              fill="currentColor"/>
        <path d="M27 9.5v14h-6a2.65 2.65 0 0 0-3 3v-.2a2.68 2.68 0 0 0-3-2.8H9v-14H7v16h6c2 0 3.5 1 3.5 3h3c0-2 1.5-3 3.5-3h6v-16z"
              fill="currentColor" opacity=".5"/>
    </symbol>
    <symbol viewBox="0 0 36 36" id="the-plugin-people">
        <title>Product apps</title>
        <path d="M26 20.64a1.81 1.81 0 0 0 1.47 2.17h.39a2.76 2.76 0 0 0 .78-.16.15.15 0 0 1 .23.08v1.17a.86.86 0 0 1-.85.85h-1.31a.86.86 0 0 0-.85.85 1.44 1.44 0 0 0 .16.54 1.12 1.12 0 0 1 .16.54 1 1 0 0 1-1 1 1 1 0 0 1-.47-.08 1.21 1.21 0 0 1-.62-1 .74.74 0 0 1 .16-.54 1.12 1.12 0 0 0 .16-.54.86.86 0 0 0-.85-.85h-1.35a.86.86 0 0 1-.85-.85V22.5a.86.86 0 0 0-.85-.85 1.44 1.44 0 0 0-.54.16 1.12 1.12 0 0 1-.54.16 1.11 1.11 0 0 1-.93-.47 1 1 0 0 1-.08-1 1.18 1.18 0 0 1 .93-.54.74.74 0 0 1 .54.16 1.12 1.12 0 0 0 .54.16.86.86 0 0 0 .85-.85V18a.86.86 0 0 1 .85-.85h1.32a.86.86 0 0 0 .85-.85 1.44 1.44 0 0 0-.16-.54 1.12 1.12 0 0 1-.16-.54 1 1 0 0 1 1-1 1 1 0 0 1 .47.08 1 1 0 0 1 .62.93.74.74 0 0 1-.16.54 1.12 1.12 0 0 0-.16.54.86.86 0 0 0 .85.85H28a.86.86 0 0 1 .85.85v1.09c0 .08-.08.16-.23.16h-.08a2.76 2.76 0 0 0-.78-.16A2 2 0 0 0 26 20.64z"
              fill="currentColor"/>
        <path d="M20.27 22.74a2.76 2.76 0 0 1-.78.16 1.86 1.86 0 1 1 0-3.73 2.76 2.76 0 0 1 .78.16.15.15 0 0 0 .23-.08v-1.09a.86.86 0 0 0-.85-.85h-1.32a.86.86 0 0 1-.85-.85 1.44 1.44 0 0 1 .16-.54 1.12 1.12 0 0 0 .16-.54 1 1 0 0 0-.62-.93 1 1 0 0 0-.47-.08 1 1 0 0 0-1 1 .74.74 0 0 0 .16.54 1.12 1.12 0 0 1 .16.54.86.86 0 0 1-.85.85h-1.27a.86.86 0 0 0-.85.85v1.32a.86.86 0 0 1-.85.85 1.44 1.44 0 0 1-.54-.16c-.08-.16-.23-.16-.47-.16a1.08 1.08 0 0 0-.93.54 1.16 1.16 0 0 0 .08 1 1 1 0 0 0 .85.47.74.74 0 0 0 .54-.16 1.12 1.12 0 0 1 .54-.16.86.86 0 0 1 .85.85v1.36a.86.86 0 0 0 .85.85h1.32a.86.86 0 0 1 .85.85 1.44 1.44 0 0 1-.16.54 1.12 1.12 0 0 0-.16.54 1.08 1.08 0 0 0 .54.93 1 1 0 0 0 .47.08 1.16 1.16 0 0 0 1.09-1 .74.74 0 0 0-.16-.54 1.12 1.12 0 0 1-.16-.54.86.86 0 0 1 .85-.85h1.32a.86.86 0 0 0 .85-.85v-1a.28.28 0 0 0-.39-.16c.11-.09.03-.09.03-.01zM28 9h-5.79a.86.86 0 0 0-.85.85v1.32a.86.86 0 0 1-.85.85 1.44 1.44 0 0 1-.54-.16 1.12 1.12 0 0 0-.54-.16 1.08 1.08 0 0 0-.93.54 1 1 0 0 0 .08 1 1 1 0 0 0 .85.47.74.74 0 0 0 .54-.16 1.12 1.12 0 0 1 .54-.16.86.86 0 0 1 .85.85v1.36a.86.86 0 0 0 .85.85h1.16a.17.17 0 0 0 .16-.16v-.08l-.23-.7a1.79 1.79 0 0 1 1.47-1.94h.39A1.89 1.89 0 0 1 27 15.44a1.77 1.77 0 0 1-.23.85c0 .08 0 .16.08.16h1.24a.86.86 0 0 0 .91-.85V9.85A1 1 0 0 0 28 9z"
              fill="currentColor"/>
    </symbol>
    <symbol viewBox="0 0 36 36" id="training-and-certification">
        <title>Training and Certification icon</title>
        <path d="M18 7.51l-13.12 7.2L18 21.12l13.12-6.41zm0 8.24c-1.2 0-1.95-.87-1.73-1.73A1.74 1.74 0 0 1 18 12.87 1.74 1.74 0 0 1 19.73 14c.22.89-.53 1.75-1.73 1.75z"
              fill="currentColor"/>
        <path d="M28.59 24l-9.89 5.59a1.79 1.79 0 0 1-1.29 0L7.41 24c-.91-.37 0-2 0-2L8 18.32l10 5.05 9.65-4.9.94 3.53s.91 1.61 0 2z"
              fill="currentColor"/>
    </symbol>
    <symbol viewBox="0 0 36 36" id="trello">
        <defs>
            <linearGradient id="cla" x1="18" y1="651.2" x2="18" y2="631.8" gradientTransform="translate(0 -623.5)"
                            gradientUnits="userSpaceOnUse">
                <stop offset="0" stop-color="currentColor" stop-opacity=".4"/>
                <stop offset=".14" stop-color="currentColor" stop-opacity=".54"/>
                <stop offset=".33" stop-color="currentColor" stop-opacity=".71"/>
                <stop offset=".52" stop-color="currentColor" stop-opacity=".83"/>
                <stop offset=".69" stop-color="currentColor" stop-opacity=".93"/>
                <stop offset=".86" stop-color="currentColor" stop-opacity=".98"/>
                <stop offset="1" stop-color="currentColor"/>
            </linearGradient>
        </defs>
        <title>Trello</title>
        <path d="M25.28 8.3H10.72a2.43 2.43 0 0 0-2.42 2.42v14.56a2.43 2.43 0 0 0 2.43 2.43h14.55a2.43 2.43 0 0 0 2.43-2.43V10.72a2.43 2.43 0 0 0-2.43-2.42zM16.74 23a1.16 1.16 0 0 1-1.16 1.16H12A1.16 1.16 0 0 1 10.82 23V12A1.16 1.16 0 0 1 12 10.82h3.59A1.16 1.16 0 0 1 16.74 12zm8.44-4.85A1.16 1.16 0 0 1 24 19.31h-3.57a1.16 1.16 0 0 1-1.16-1.16V12a1.16 1.16 0 0 1 1.16-1.16H24A1.16 1.16 0 0 1 25.18 12z"
              fill="url(#cla)"/>
    </symbol>
    <symbol viewBox="0 0 36 36" id="uncategorized">
        <defs>
            <linearGradient id="cma" x1="16.62" y1="75.25" x2="11.44" y2="66.29"
                            gradientTransform="matrix(1 0 0 -1 0 94)" gradientUnits="userSpaceOnUse">
                <stop offset="0" stop-color="currentColor" stop-opacity=".4"/>
                <stop offset=".92" stop-color="currentColor"/>
            </linearGradient>
        </defs>
        <title>Atlassian logo</title>
        <path d="M13.93 17.24a.57.57 0 0 0-1 .11l-4.9 9.8a.59.59 0 0 0 .52.85h6.83a.56.56 0 0 0 .52-.33c1.51-3.04.62-7.67-1.97-10.43z"
              fill="url(#cma)"/>
        <path d="M17.53 8.32a12.93 12.93 0 0 0-.75 12.77l3.29 6.58a.59.59 0 0 0 .52.33h6.83a.59.59 0 0 0 .52-.85L18.53 8.32a.56.56 0 0 0-1 0z"
              fill="currentColor"/>
    </symbol>
</svg>